<svg width="120" height="120" viewBox="0 0 120 120" fill="none" xmlns="http://www.w3.org/2000/svg">
<g clip-path="url(#clip0_113:175)">
<g style="mix-blend-mode:multiply" opacity="0.15">
<g style="mix-blend-mode:multiply" opacity="0.15">
<path d="M82.0434 44.6244V87.8571H39.1963L82.0434 44.6244Z" fill="#065A92"/>
</g>
</g>
<path d="M34.4895 37.5869H30.6569C30.2943 37.5869 30 37.8812 30 38.2438V81.7562C30 82.1188 30.2943 82.4131 30.6569 82.4131H34.4895C34.8521 82.4131 35.1464 82.1188 35.1464 81.7562V38.2438C35.1464 37.8812 34.8521 37.5869 34.4895 37.5869Z" fill="#065A92"/>
<path d="M70.7579 37.5869H68.0198C67.6565 37.5869 67.3629 37.8812 67.3629 38.2438V81.7562C67.3629 82.1188 67.6565 82.4131 68.0198 82.4131H70.7579C71.1211 82.4131 71.4148 82.1188 71.4148 81.7562V38.2438C71.4148 37.8812 71.1211 37.5869 70.7579 37.5869Z" fill="#065A92"/>
<path d="M41.1678 37.5869H38.5401C38.1775 37.5869 37.8832 37.8812 37.8832 38.2438V81.7562C37.8832 82.1188 38.1775 82.4131 38.5401 82.4131H41.1678C41.5305 82.4131 41.8248 82.1188 41.8248 81.7562V38.2438C41.8248 37.8812 41.5305 37.5869 41.1678 37.5869Z" fill="#065A92"/>
<path d="M89.3431 37.5869H86.7153C86.3527 37.5869 86.0584 37.8812 86.0584 38.2438V81.7562C86.0584 82.1188 86.3527 82.4131 86.7153 82.4131H89.3431C89.7063 82.4131 90 82.1188 90 81.7562V38.2438C90 37.8812 89.7063 37.5869 89.3431 37.5869Z" fill="#065A92"/>
<path d="M83.321 37.5869H81.5315C81.1682 37.5869 80.8746 37.8812 80.8746 38.2438V81.7562C80.8746 82.1188 81.1682 82.4131 81.5315 82.4131H83.321C83.6836 82.4131 83.9779 82.1188 83.9779 81.7562V38.2438C83.9779 37.8812 83.6836 37.5869 83.321 37.5869Z" fill="#065A92"/>
<path d="M64.0782 37.5869H61.4505C61.0872 37.5869 60.7936 37.8812 60.7936 38.2438V81.7562C60.7936 82.1188 61.0872 82.4131 61.4505 82.4131H64.0782C64.4409 82.4131 64.7352 82.1188 64.7352 81.7562V38.2438C64.7352 37.8812 64.4409 37.5869 64.0782 37.5869Z" fill="#065A92"/>
<path d="M57.7007 37.5869H56.0584C55.6958 37.5869 55.4015 37.8812 55.4015 38.2438V81.7562C55.4015 82.1188 55.6958 82.4131 56.0584 82.4131H57.7007C58.0634 82.4131 58.3577 82.1188 58.3577 81.7562V38.2438C58.3577 37.8812 58.0634 37.5869 57.7007 37.5869Z" fill="#065A92"/>
<path d="M78.2994 37.5869H77.2858C76.9225 37.5869 76.6288 37.8812 76.6288 38.2438V81.7562C76.6288 82.1188 76.9225 82.4131 77.2858 82.4131H78.2994C78.662 82.4131 78.9563 82.1188 78.9563 81.7562V38.2438C78.9563 37.8812 78.6627 37.5869 78.2994 37.5869Z" fill="#065A92"/>
<path d="M52.1169 37.5869H49.4891C49.1265 37.5869 48.8322 37.8812 48.8322 38.2438V81.7562C48.8322 82.1188 49.1265 82.4131 49.4891 82.4131H52.1169C52.4795 82.4131 52.7738 82.1188 52.7738 81.7562V38.2438C52.7738 37.8812 52.4795 37.5869 52.1169 37.5869Z" fill="#065A92"/>
<path d="M45.5476 37.5869H44.8906C44.528 37.5869 44.2337 37.8812 44.2337 38.2438V81.7562C44.2337 82.1188 44.528 82.4131 44.8906 82.4131H45.5476C45.9102 82.4131 46.2045 82.1188 46.2045 81.7562V38.2438C46.2045 37.8812 45.9102 37.5869 45.5476 37.5869Z" fill="#065A92"/>
<path d="M74.1634 37.5869H73.9249C73.563 37.5869 73.268 37.8812 73.268 38.2438V81.7562C73.268 82.1188 73.563 82.4131 73.9249 82.4131H74.1634C74.5254 82.4131 74.8203 82.1188 74.8203 81.7562V38.2438C74.8203 37.8812 74.5247 37.5869 74.1634 37.5869Z" fill="#065A92"/>
</g>
<defs>
<clipPath id="clip0_113:175">
<rect width="120" height="120" fill="white"/>
</clipPath>
</defs>
</svg>
