<svg width="120" height="120" viewBox="0 0 120 120" fill="none" xmlns="http://www.w3.org/2000/svg">
<path d="M39.8604 75.654C39.6262 75.2473 39.0962 75.1117 38.6895 75.3459L36.5448 76.5907V74.1133C36.5448 73.645 36.1627 73.2629 35.6944 73.2629C35.226 73.2629 34.8439 73.645 34.8439 74.1133V76.5907L32.6993 75.3459C32.2926 75.1117 31.7626 75.2473 31.5284 75.654C31.2942 76.0607 31.4298 76.5907 31.8365 76.8249L33.9935 78.0821L31.8365 79.3393C31.4298 79.5735 31.2942 80.1035 31.5284 80.5102C31.7626 80.9169 32.2926 81.0525 32.6993 80.8183L34.8439 79.5735V82.0509C34.8439 82.5192 35.226 82.9013 35.6944 82.9013C36.1627 82.9013 36.5448 82.5192 36.5448 82.0509V79.5735L38.6895 80.8183C39.0962 81.0525 39.6262 80.9169 39.8604 80.5102C40.0945 80.1035 39.959 79.5735 39.5522 79.3393L37.3953 78.0821L39.5522 76.8249C39.959 76.5784 40.1069 76.0607 39.8604 75.654Z" fill="#065A92"/>
<path d="M47.7363 80.4979C47.9705 80.9046 48.5005 81.0402 48.9072 80.806L51.0518 79.5611V82.0386C51.0518 82.5069 51.4339 82.889 51.9023 82.889C52.3706 82.889 52.7527 82.5069 52.7527 82.0386V79.5611L54.8973 80.806C55.3041 81.0402 55.8341 80.9046 56.0683 80.4979C56.3024 80.0911 56.1669 79.5611 55.7601 79.327L53.6032 78.0698L55.7601 76.8126C56.1669 76.5784 56.3024 76.0484 56.0683 75.6417C55.8341 75.2349 55.3041 75.0994 54.8973 75.3335L52.7527 76.5784V74.101C52.7527 73.6326 52.3706 73.2505 51.9023 73.2505C51.4339 73.2505 51.0518 73.6326 51.0518 74.101V76.5784L48.9072 75.3459C48.5005 75.1117 47.9705 75.2473 47.7363 75.654C47.5021 76.0607 47.6377 76.5907 48.0444 76.8249L50.2014 78.0821L48.0444 79.327C47.6377 79.5611 47.5021 80.0911 47.7363 80.4979Z" fill="#065A92"/>
<path d="M46.2079 86.9563V88.46C46.2079 88.8175 46.5037 89.1133 46.8611 89.1133H56.9556C57.3131 89.1133 57.6089 88.8175 57.6089 88.46V86.9563C57.6089 86.5989 57.3131 86.3031 56.9556 86.3031H46.8611C46.4914 86.3031 46.2079 86.5989 46.2079 86.9563Z" fill="#065A92"/>
<path d="M70.8093 44.9268H70.7354V41.5743C70.7354 35.7444 65.9654 30.7896 60.1479 30.8882C54.4905 30.9868 49.9055 35.6211 49.9055 41.3031V41.6236C49.9055 42.1043 50.2999 42.4987 50.7806 42.4987H53.5784C54.0591 42.4987 54.4535 42.1043 54.4535 41.6236V41.525C54.4535 38.3943 56.8077 35.6458 59.9383 35.4486C63.3401 35.239 66.175 37.9383 66.175 41.2908V44.9145H57.5472V44.9268H49.5727C48.0936 44.9761 46.8981 46.1716 46.8981 47.663V62.8233C46.8981 64.3393 48.1306 65.5718 49.6466 65.5718H70.797C72.313 65.5718 73.5456 64.3393 73.5456 62.8233V47.6753C73.5579 46.1593 72.3253 44.9268 70.8093 44.9268ZM61.8611 55.9334C61.6516 56.0813 61.5899 56.2415 61.5899 56.488C61.6023 57.5973 61.6023 58.7066 61.5899 59.8282C61.6146 60.2965 61.3804 60.7403 60.9613 60.9498C59.9876 61.4428 59.0139 60.7526 59.0139 59.8282C59.0139 59.8282 59.0139 59.8282 59.0139 59.8159C59.0139 58.7066 59.0139 57.585 59.0139 56.4757C59.0139 56.2538 58.9646 56.0936 58.7674 55.9457C57.7567 55.2062 57.424 53.9366 57.9293 52.815C58.4223 51.7304 59.6179 51.0895 60.7395 51.3237C61.9967 51.5702 62.8718 52.5932 62.8841 53.838C62.9211 54.7131 62.5636 55.428 61.8611 55.9334Z" fill="#065A92"/>
<path d="M62.4034 86.9563V88.46C62.4034 88.8175 62.6993 89.1133 63.0567 89.1133H73.1512C73.5086 89.1133 73.8044 88.8175 73.8044 88.46V86.9563C73.8044 86.5989 73.5086 86.3031 73.1512 86.3031H63.0567C62.6993 86.3031 62.4034 86.5989 62.4034 86.9563Z" fill="#065A92"/>
<path d="M63.9318 80.4979C64.166 80.9046 64.696 81.0402 65.1028 80.806L67.2474 79.5611V82.0386C67.2474 82.5069 67.6295 82.889 68.0978 82.889C68.5662 82.889 68.9483 82.5069 68.9483 82.0386V79.5611L71.0929 80.806C71.4996 81.0402 72.0296 80.9046 72.2638 80.4979C72.498 80.0911 72.3624 79.5611 71.9557 79.327L69.7987 78.0698L71.9557 76.8126C72.3624 76.5784 72.498 76.0484 72.2638 75.6417C72.0296 75.2349 71.4996 75.0994 71.0929 75.3335L68.9483 76.5784V74.101C68.9483 73.6326 68.5662 73.2505 68.0978 73.2505C67.6295 73.2505 67.2474 73.6326 67.2474 74.101V76.5784L65.1028 75.3335C64.696 75.0994 64.166 75.2349 63.9318 75.6417C63.6977 76.0484 63.8332 76.5784 64.24 76.8126L66.3969 78.0698L64.24 79.327C63.8332 79.5611 63.6977 80.0911 63.9318 80.4979Z" fill="#065A92"/>
<path d="M89.3467 86.3031H79.2522C78.8948 86.3031 78.599 86.5989 78.599 86.9563V88.46C78.599 88.8175 78.8948 89.1133 79.2522 89.1133H89.3467C89.7042 89.1133 90 88.8175 90 88.46V86.9563C90 86.5989 89.7042 86.3031 89.3467 86.3031Z" fill="#065A92"/>
<path d="M30.6532 89.1133H40.7477C41.1052 89.1133 41.401 88.8175 41.401 88.46V86.9563C41.401 86.5989 41.1052 86.3031 40.7477 86.3031H30.6532C30.2958 86.3031 30 86.5989 30 86.9563V88.46C30 88.8175 30.2958 89.1133 30.6532 89.1133Z" fill="#065A92"/>
<path d="M80.1397 80.4979C80.3739 80.9046 80.9039 81.0402 81.3106 80.806L83.4552 79.5611V82.0386C83.4552 82.5069 83.8373 82.889 84.3057 82.889C84.7741 82.889 85.1561 82.5069 85.1561 82.0386V79.5611L87.3008 80.806C87.7075 81.0402 88.2375 80.9046 88.4717 80.4979C88.7059 80.0911 88.5703 79.5611 88.1635 79.327L86.0066 78.0698L88.1635 76.8126C88.5703 76.5784 88.7059 76.0484 88.4717 75.6417C88.2375 75.2349 87.7075 75.0994 87.3008 75.3335L85.1561 76.5784V74.101C85.1561 73.6326 84.7741 73.2505 84.3057 73.2505C83.8373 73.2505 83.4552 73.6326 83.4552 74.101V76.5784L81.3106 75.3335C80.9039 75.0994 80.3739 75.2349 80.1397 75.6417C79.9055 76.0484 80.0411 76.5784 80.4479 76.8126L82.6048 78.0698L80.4479 79.327C80.0411 79.5611 79.8932 80.0911 80.1397 80.4979Z" fill="#065A92"/>
</svg>
