<svg width="120" height="122" viewBox="0 0 120 122" fill="none" xmlns="http://www.w3.org/2000/svg">
<path d="M64.9444 78.788C65.0361 75.6777 64.1815 72.6137 62.4956 70.0081C60.6113 67.2738 57.9154 66.4478 55.3043 64.6961C54.0904 63.8701 54.041 62.1469 54.288 60.8082C54.6127 59.0636 55.3325 54.9621 55.8618 53.3101C56.6739 52.7742 57.3516 52.0553 57.8415 51.2101C58.3314 50.3649 58.62 49.4165 58.6847 48.4395C58.6847 46.6166 57.8378 45.634 56.5675 44.694V42.9067C56.5181 36.6263 57.4991 29 45.2407 29C42.2626 29 37.379 30.0823 37.379 33.3935C37.379 33.5857 33.4834 32.9306 33.9633 42.8783V44.6656C32.6789 45.6055 31.8462 46.5881 31.8462 48.411C31.9079 49.3836 32.1917 50.3287 32.6752 51.1723C33.1588 52.016 33.8291 52.7354 34.6338 53.2745C35.1701 54.9336 35.8899 59.028 36.2146 60.7797C36.4616 62.1184 36.4051 63.8416 35.1983 64.6676C32.5872 66.4549 29.8913 67.2453 28 69.9797C26.301 72.5908 25.4387 75.6658 25.53 78.788C31.0801 83.4081 38.0456 85.9446 45.2407 85.9657C52.4407 85.9848 59.4171 83.4435 64.9444 78.788Z" fill="white" stroke="#065A92" stroke-width="3" stroke-linecap="round" stroke-linejoin="round"/>
<path d="M40.0469 35.1738C40.0469 35.1738 45.0575 36.9398 51.9806 35.1738" stroke="#065A92" stroke-width="1.5" stroke-miterlimit="10" stroke-linecap="round"/>
<g style="mix-blend-mode:multiply" opacity="0.2">
<g style="mix-blend-mode:multiply" opacity="0.2">
<path d="M55.2421 71.0121C55.2433 73.4145 54.6658 75.7813 53.5594 77.9086C52.453 80.036 50.8507 81.8601 48.8906 83.2241C53.8204 82.5707 58.4932 80.6209 62.4404 77.5702C62.3512 75.3658 61.6706 73.2272 60.4715 71.3823C59.4835 69.9582 58.1567 69.2034 56.4701 68.2563C55.9196 67.943 55.355 67.6226 54.7763 67.2666C55.0911 68.4895 55.2477 69.7485 55.2421 71.0121Z" fill="#065A92"/>
</g>
</g>
<path d="M52.9119 67.2666C50.8543 69.2777 48.1019 70.4023 45.2372 70.4023C42.3724 70.4023 39.6201 69.2777 37.5625 67.2666" stroke="#065A92" stroke-width="1.5" stroke-miterlimit="10" stroke-linecap="round"/>
<path d="M62.9218 75.4984C61.9048 76.0186 61.0171 76.7633 60.3247 77.6773C58.6945 79.9916 58.0664 81.0312 58.0664 83.8296C63.0065 87.8315 69.4073 91.0002 76.2669 91.0002C83.1265 91.0002 89.5415 87.8813 94.4674 83.8296C94.4674 81.0383 93.8393 79.9987 92.2091 77.6845C91.5183 76.7883 90.6384 76.0586 89.6333 75.5483V51.8648C89.553 48.3425 88.1099 44.9917 85.6127 42.5292C83.1154 40.0667 79.7622 38.688 76.2705 38.688C72.7787 38.688 69.4255 40.0667 66.9283 42.5292C64.431 44.9917 62.9879 48.3425 62.9077 51.8648V75.5055L62.9218 75.4984Z" fill="white" stroke="#065A92" stroke-width="3" stroke-linecap="round" stroke-linejoin="round"/>
<path d="M86.9488 74.2163C86.0708 73.8378 85.2236 73.3902 84.4153 72.8776C83.633 72.2885 83.0277 71.4923 82.6665 70.5773C82.3052 69.6623 82.2022 68.6642 82.3687 67.6937C83.0109 65.3439 85.5374 63.1507 85.5374 60.6585V53.7015C85.5131 51.6323 84.8061 49.6303 83.528 48.0119C82.2499 46.3935 80.4737 45.251 78.4802 44.7651C77.7871 47.2988 76.2862 49.5317 74.2096 51.1186C72.1329 52.7056 69.596 53.5583 66.991 53.5449V60.6656C66.991 63.1578 69.5246 65.351 70.1597 67.7009C70.3295 68.6708 70.2286 69.6692 69.8685 70.5846C69.5083 71.5 68.903 72.2964 68.1202 72.8847C67.3148 73.3963 66.47 73.8416 65.5938 74.2163" stroke="#065A92" stroke-width="1.5" stroke-miterlimit="10" stroke-linecap="round"/>
<g style="mix-blend-mode:multiply" opacity="0.15">
<g style="mix-blend-mode:multiply" opacity="0.15">
<path d="M85.5507 79.1794C85.5505 80.8659 85.169 82.5301 84.4353 84.0454C83.7015 85.5607 82.6348 86.8871 81.3164 87.9236C85.1631 86.9441 88.7673 85.1718 91.9022 82.7184C91.754 81.572 91.3023 80.8955 90.1661 79.2862C89.4604 78.2751 87.9219 77.5844 86.3058 76.8509C85.9177 76.6729 85.5295 76.4949 85.1343 76.3027C85.3958 77.2394 85.5357 78.2064 85.5507 79.1794Z" fill="#065A92"/>
</g>
</g>
<path d="M83.943 75.7544C82.7151 76.9649 80.3298 78.8804 78.5372 80.2689C77.8873 80.7782 77.0877 81.0546 76.2648 81.0546C75.4419 81.0546 74.6424 80.7782 73.9924 80.2689C72.2069 78.8448 69.8217 76.9649 68.5938 75.7544" stroke="#065A92" stroke-width="1.5" stroke-miterlimit="10" stroke-linecap="round"/>
</svg>
