<svg width="120" height="120" viewBox="0 0 120 120" fill="none" xmlns="http://www.w3.org/2000/svg">
<path d="M75.5385 70.9823V78.75C75.5385 81.1362 73.5977 83.0769 71.2115 83.0769H45.25C42.8638 83.0769 40.9231 81.1362 40.9231 78.75V52.7885C40.9231 50.4023 42.8638 48.4615 45.25 48.4615H53.1631L60.0885 41.5385H45.25C39.0354 41.5385 34 46.5738 34 52.7885V78.75C34 84.9646 39.0354 90 45.25 90H71.2115C77.4262 90 82.4615 84.9646 82.4615 78.75V64.0569L75.5385 70.9823Z" fill="#065A92"/>
<path d="M86.11 30.0001H62.4353C58.083 30.0047 58.3853 31.177 60.6815 33.4708L68.1123 40.9016L55.3738 53.6378C52.7315 56.2778 52.7338 60.5562 55.3738 63.1939L60.9353 68.7578C63.5753 71.3908 67.8492 71.3931 70.4892 68.7555L83.2277 56.017L90.52 63.3093C93.0607 65.8478 93.9977 65.9147 93.9977 61.5624L94 37.8901C93.9977 29.9585 94.0553 29.9978 86.11 30.0001Z" fill="#065A92"/>
</svg>
