<svg width="120" height="120" viewBox="0 0 120 120" fill="none" xmlns="http://www.w3.org/2000/svg">
<g clip-path="url(#clip0_113:113)">
<g style="mix-blend-mode:multiply" opacity="0.15">
<g style="mix-blend-mode:multiply" opacity="0.15">
<path d="M82.0434 44.6244V87.8571H39.1963L82.0434 44.6244Z" fill="#065A92"/>
</g>
</g>
</g>
<path d="M33.0716 83.1528C32.3709 83.1528 31.7766 83.0174 31.2887 82.7462C30.8007 82.4753 30.4357 82.0768 30.1939 81.5511L31.2324 80.1874C31.2574 80.2624 31.3093 80.3625 31.3888 80.4876C31.4679 80.6128 31.5783 80.736 31.7203 80.8567C31.862 80.9776 32.0414 81.084 32.2583 81.1758C32.4751 81.2676 32.7338 81.3134 33.0341 81.3134C33.2174 81.3134 33.3925 81.2926 33.5596 81.2509C33.7263 81.2093 33.8742 81.1489 34.0037 81.0694C34.1329 80.9903 34.2352 80.8902 34.3103 80.7692C34.3853 80.6484 34.4229 80.5086 34.4229 80.35C34.4229 79.9665 34.212 79.6911 33.791 79.5242C33.3697 79.3575 32.7671 79.274 31.9831 79.274H31.5702V77.6098H31.9831C32.2917 77.6098 32.5794 77.5912 32.8464 77.5536C33.1132 77.5161 33.3469 77.4557 33.547 77.3722C33.7472 77.289 33.9055 77.1825 34.0225 77.0532C34.1392 76.924 34.1977 76.7676 34.1977 76.584C34.1977 76.4338 34.162 76.3068 34.0913 76.2024C34.0203 76.0982 33.9349 76.0169 33.8348 75.9584C33.7347 75.9002 33.6263 75.8583 33.5095 75.8333C33.3925 75.8083 33.2884 75.7957 33.1967 75.7957C32.9465 75.7957 32.7253 75.8251 32.5336 75.8835C32.3415 75.9418 32.1726 76.017 32.0269 76.1085C31.8808 76.2005 31.7558 76.3006 31.6515 76.4088C31.5472 76.5174 31.4657 76.6215 31.4075 76.7216L30.1313 75.2454C30.2815 75.0535 30.471 74.8825 30.7006 74.7324C30.9299 74.5823 31.1801 74.4571 31.4513 74.357C31.7222 74.2569 32.0059 74.18 32.3021 74.1257C32.5982 74.0715 32.8921 74.0443 33.1842 74.0443C33.6346 74.0443 34.0538 74.1068 34.4416 74.2319C34.8295 74.357 35.1629 74.5281 35.4426 74.7449C35.7219 74.962 35.9409 75.2183 36.0994 75.5144C36.2579 75.8106 36.3372 76.1337 36.3372 76.484C36.3372 76.9762 36.187 77.3807 35.8867 77.6977C35.5865 78.0147 35.1902 78.2275 34.6981 78.3358C34.9734 78.3858 35.2236 78.4797 35.4488 78.6173C35.674 78.7549 35.8658 78.926 36.0244 79.1303C36.1828 79.3348 36.3039 79.564 36.3872 79.8183C36.4704 80.0729 36.5123 80.3375 36.5123 80.6128C36.5123 81.055 36.41 81.4367 36.2058 81.7576C36.0012 82.0788 35.7366 82.3436 35.4113 82.5521C35.086 82.7607 34.7189 82.913 34.3103 83.0087C33.9014 83.1046 33.4886 83.1528 33.0716 83.1528Z" fill="#065A92"/>
<path d="M30 64.2726C30 63.6969 30.0313 63.1925 30.0938 62.7585C30.1564 62.325 30.2731 61.9454 30.4442 61.6201C30.6151 61.2948 30.8445 61.0092 31.1323 60.7631C31.4201 60.5172 31.7892 60.2856 32.2396 60.0688C32.5066 59.9435 32.7651 59.8184 33.0153 59.6935C33.2656 59.5685 33.4886 59.4288 33.6847 59.2743C33.8805 59.1201 34.0391 58.947 34.1602 58.7551C34.2809 58.5632 34.3416 58.3422 34.3416 58.092C34.3416 57.7501 34.2415 57.4936 34.0413 57.3225C33.8411 57.1516 33.5824 57.066 33.2656 57.066C33.0654 57.066 32.8693 57.0954 32.6775 57.1536C32.4855 57.2121 32.304 57.2893 32.1333 57.3851C31.9622 57.4809 31.8017 57.5874 31.6515 57.7041C31.5014 57.8209 31.3719 57.9376 31.2637 58.0544L30.0125 56.7282C30.1459 56.5698 30.3253 56.4071 30.5505 56.2402C30.7757 56.0735 31.0385 55.9191 31.3388 55.7773C31.639 55.6356 31.9747 55.5189 32.3459 55.427C32.7171 55.3353 33.1154 55.2893 33.5408 55.2893C34.5335 55.2893 35.2945 55.5377 35.8242 56.0338C36.3538 56.5302 36.6187 57.208 36.6187 58.0669C36.6187 58.4342 36.5687 58.7532 36.4686 59.0241C36.3685 59.2953 36.2308 59.5371 36.0557 59.7499C35.8805 59.9625 35.6719 60.1503 35.4301 60.313C35.1881 60.4756 34.9213 60.632 34.6293 60.7822C34.3707 60.9157 34.1307 61.0449 33.9099 61.17C33.6888 61.2951 33.497 61.4245 33.3344 61.5577C33.1717 61.6913 33.0444 61.833 32.9528 61.9831C32.861 62.1333 32.8151 62.2959 32.8151 62.4711H36.6312V64.2729H30V64.2726Z" fill="#065A92"/>
<path d="M36.3496 43.7033V45.5052H30.9571V43.7033H32.7212V38.5109C32.6545 38.6112 32.5418 38.7218 32.3834 38.8425C32.2248 38.9636 32.0456 39.0804 31.8454 39.1928C31.6452 39.3054 31.4408 39.3993 31.2323 39.4743C31.0239 39.5494 30.836 39.5871 30.6693 39.5871V37.7477C30.8945 37.7477 31.126 37.6874 31.3637 37.5665C31.6014 37.4456 31.8204 37.312 32.0206 37.1659C32.2208 37.02 32.3855 36.8844 32.5148 36.7593C32.644 36.634 32.7128 36.5633 32.7212 36.5466H34.7606V43.7033H36.3496Z" fill="#065A92"/>
<path d="M90 45.1423H42.7682V49.8342H90V45.1423Z" fill="#065A92"/>
<path d="M90 32.6306H42.7682V37.3225H90V32.6306Z" fill="#065A92"/>
<path d="M90 82.6775H42.7682V87.3694H90V82.6775Z" fill="#065A92"/>
<path d="M90 70.1658H42.7682V74.8577H90V70.1658Z" fill="#065A92"/>
<path d="M90 57.6541H42.7682V62.346H90V57.6541Z" fill="#065A92"/>
<defs>
<clipPath id="clip0_113:113">
<rect width="120" height="120" fill="white"/>
</clipPath>
</defs>
</svg>
