<svg width="120" height="120" viewBox="0 0 120 120" fill="none" xmlns="http://www.w3.org/2000/svg">
<g filter="url(#filter0_d)">
<g style="mix-blend-mode:multiply" opacity="0.15">
<g style="mix-blend-mode:multiply" opacity="0.15">
<path d="M82.0434 44.6244V87.8571H39.1963L82.0434 44.6244Z" fill="#065A92"/>
</g>
</g>
<g clip-path="url(#clip0)">
<path d="M82.0434 29.6776H72.6905C72.6775 29.6776 72.6649 29.6791 72.6522 29.6795C71.5996 28.2608 69.9128 27.3394 68.0145 27.3394H65.6163C64.7046 26.1103 63.3515 25.299 61.8165 25.0799C61.2368 24.974 60.7633 24.974 60.1835 25.0799C58.6484 25.299 57.2953 26.1103 56.3837 27.3394H53.9855C52.0871 27.3394 50.4003 28.2608 49.3477 29.6795C49.3349 29.6791 49.3221 29.6776 49.3092 29.6776H39.9564C36.7735 29.6776 34.184 32.2672 34.184 35.45V89.2281C34.184 92.411 36.7735 95.0005 39.9564 95.0005H82.0436C85.2264 95.0005 87.816 92.411 87.816 89.2281V35.4498C87.8159 32.267 85.2263 29.6776 82.0434 29.6776ZM53.9853 29.5314H56.9721C57.3623 29.5314 57.7231 29.3239 57.9194 28.9866C58.4749 28.0322 59.4191 27.3982 60.5096 27.2474C60.5267 27.2451 60.5437 27.2423 60.5608 27.2391C60.8916 27.1771 61.1085 27.1771 61.4393 27.2391C61.4562 27.2421 61.4733 27.2451 61.4905 27.2474C62.581 27.3982 63.5252 28.0322 64.0807 28.9866C64.277 29.3239 64.6378 29.5314 65.028 29.5314H68.0147C69.989 29.5314 71.5951 31.1376 71.5951 33.1118V36.6922H50.4051V33.1117H50.405C50.405 31.1376 52.0111 29.5314 53.9853 29.5314ZM49.3089 38.8841H72.6908C73.296 38.8841 73.7869 38.3934 73.7869 37.788V36.5458H80.9475V88.1318H41.0523V36.5459H48.2129V37.788C48.2129 38.3934 48.7035 38.8841 49.3089 38.8841ZM85.6238 89.228C85.6238 91.2022 84.0177 92.8084 82.0434 92.8084H39.9562C37.982 92.8084 36.3758 91.2022 36.3758 89.228V35.4498C36.3758 33.4756 37.982 31.8694 39.9562 31.8694H48.349C48.2607 32.2699 48.2129 32.6852 48.2129 33.1117V34.3539H39.9562C39.351 34.3539 38.8602 34.8446 38.8602 35.45V89.2281C38.8602 89.8334 39.3508 90.3242 39.9562 90.3242H82.0434C82.6487 90.3242 83.1395 89.8335 83.1395 89.2281V35.4498C83.1395 34.8446 82.6488 34.3538 82.0434 34.3538H73.7867V33.1115C73.7867 32.6851 73.7387 32.2698 73.6507 31.8693H82.0434C84.0177 31.8693 85.6238 33.4755 85.6238 35.4497V89.228Z" fill="#065A92"/>
<path d="M69.1834 42.537H52.8163C52.211 42.537 51.7202 43.0277 51.7202 43.6331C51.7202 44.2385 52.2108 44.7292 52.8163 44.7292H69.1836C69.7888 44.7292 70.2796 44.2385 70.2796 43.6331C70.2796 43.0277 69.7888 42.537 69.1834 42.537Z" fill="#065A92"/>
<path d="M71.5216 47.2134H50.478C49.8728 47.2134 49.382 47.7041 49.382 48.3095C49.382 48.9148 49.8725 49.4055 50.478 49.4055H71.5216C72.1269 49.4055 72.6177 48.9148 72.6177 48.3095C72.6177 47.7041 72.127 47.2134 71.5216 47.2134Z" fill="#065A92"/>
<path d="M49.3089 53.0589H45.8016C45.1963 53.0589 44.7056 53.5496 44.7056 54.155C44.7056 54.7604 45.1963 55.2511 45.8016 55.2511H49.3089C49.9141 55.2511 50.405 54.7604 50.405 54.155C50.405 53.5496 49.9143 53.0589 49.3089 53.0589Z" fill="#065A92"/>
<path d="M49.3089 71.7644H45.8016C45.1964 71.7644 44.7056 72.2551 44.7056 72.8604C44.7056 73.4658 45.1963 73.9565 45.8016 73.9565H49.3089C49.9141 73.9565 50.405 73.4658 50.405 72.8604C50.405 72.2551 49.9143 71.7644 49.3089 71.7644Z" fill="#065A92"/>
<path d="M49.3089 57.7352H45.8016C45.1964 57.7352 44.7056 58.2259 44.7056 58.8313C44.7056 59.4367 45.1963 59.9274 45.8016 59.9274H49.3089C49.9141 59.9274 50.405 59.4367 50.405 58.8313C50.405 58.2259 49.9143 57.7352 49.3089 57.7352Z" fill="#065A92"/>
<path d="M49.3089 62.4116H45.8016C45.1964 62.4116 44.7056 62.9023 44.7056 63.5077C44.7056 64.1131 45.1963 64.6037 45.8016 64.6037H49.3089C49.9141 64.6037 50.405 64.1131 50.405 63.5077C50.405 62.9023 49.9143 62.4116 49.3089 62.4116Z" fill="#065A92"/>
<path d="M49.3089 67.0879H45.8016C45.1964 67.0879 44.7056 67.5786 44.7056 68.184C44.7056 68.7894 45.1963 69.2801 45.8016 69.2801H49.3089C49.9141 69.2801 50.405 68.7894 50.405 68.184C50.405 67.5786 49.9143 67.0879 49.3089 67.0879Z" fill="#065A92"/>
<path d="M76.1972 53.0585H53.9845C53.3792 53.0585 52.8884 53.5492 52.8884 54.1546C52.8884 54.76 53.3791 55.2507 53.9845 55.2507H76.1972C76.8025 55.2507 77.2933 54.76 77.2933 54.1546C77.2933 53.5492 76.8026 53.0585 76.1972 53.0585Z" fill="#065A92"/>
<path d="M76.1972 57.7348H53.9845C53.3792 57.7348 52.8884 58.2255 52.8884 58.8309C52.8884 59.4363 53.3791 59.927 53.9845 59.927H76.1972C76.8025 59.927 77.2933 59.4363 77.2933 58.8309C77.2933 58.2255 76.8026 57.7348 76.1972 57.7348Z" fill="#065A92"/>
<path d="M76.1972 62.4112H53.9845C53.3792 62.4112 52.8884 62.9019 52.8884 63.5072C52.8884 64.1126 53.3791 64.6033 53.9845 64.6033H76.1972C76.8025 64.6033 77.2933 64.1126 77.2933 63.5072C77.2933 62.9019 76.8026 62.4112 76.1972 62.4112Z" fill="#065A92"/>
<path d="M69.2004 67.0885C69.1946 67.0883 69.1891 67.0876 69.1833 67.0876H53.9845C53.3793 67.0876 52.8884 67.5783 52.8884 68.1837C52.8884 68.7891 53.3791 69.2798 53.9845 69.2798H63.2032C62.376 69.9787 61.6734 70.8195 61.1312 71.7641H53.9844C53.3791 71.7641 52.8883 72.2548 52.8883 72.8602C52.8883 73.4656 53.379 73.9563 53.9844 73.9563H60.2234C60.016 74.7258 59.9036 75.5339 59.9036 76.368C59.9036 81.4848 64.0664 85.6476 69.1833 85.6476C74.3001 85.6476 78.4629 81.4848 78.4629 76.368C78.4631 71.2565 74.3095 67.0978 69.2004 67.0885ZM69.1834 83.4552C65.2753 83.4552 62.0958 80.2757 62.0958 76.3676C62.0958 72.4595 65.2753 69.2799 69.1834 69.2799C73.0915 69.2799 76.271 72.4595 76.271 76.3676C76.271 80.2758 73.0915 83.4552 69.1834 83.4552Z" fill="#065A92"/>
<path d="M73.4656 73.2545C73.0377 72.8264 72.3437 72.8264 71.9156 73.2545L68.0142 77.1559L66.451 75.5926C66.0229 75.1646 65.3289 75.1646 64.901 75.5926C64.4729 76.0207 64.4729 76.7147 64.901 77.1426L67.2392 79.4808C67.4531 79.6947 67.7337 79.8018 68.0141 79.8018C68.2945 79.8018 68.575 79.6949 68.789 79.4808L73.4653 74.8045C73.8937 74.3764 73.8937 73.6824 73.4656 73.2545Z" fill="#065A92"/>
<path d="M60.9994 31.8692C61.6047 31.8692 62.0955 31.3784 62.0955 30.7731C62.0955 30.1677 61.6047 29.677 60.9994 29.677C60.394 29.677 59.9033 30.1677 59.9033 30.7731C59.9033 31.3784 60.394 31.8692 60.9994 31.8692Z" fill="#065A92"/>
</g>
</g>
<defs>
<filter id="filter0_d" x="-4" y="0" width="128" height="128" filterUnits="userSpaceOnUse" color-interpolation-filters="sRGB">
<feFlood flood-opacity="0" result="BackgroundImageFix"/>
<feColorMatrix in="SourceAlpha" type="matrix" values="0 0 0 0 0 0 0 0 0 0 0 0 0 0 0 0 0 0 127 0" result="hardAlpha"/>
<feOffset dy="4"/>
<feGaussianBlur stdDeviation="2"/>
<feComposite in2="hardAlpha" operator="out"/>
<feColorMatrix type="matrix" values="0 0 0 0 0 0 0 0 0 0 0 0 0 0 0 0 0 0 0.25 0"/>
<feBlend mode="normal" in2="BackgroundImageFix" result="effect1_dropShadow"/>
<feBlend mode="normal" in="SourceGraphic" in2="effect1_dropShadow" result="shape"/>
</filter>
<clipPath id="clip0">
<rect width="70" height="70" fill="white" transform="translate(26 25)"/>
</clipPath>
</defs>
</svg>
