<svg width="60" height="60" viewBox="0 0 60 60" fill="none" xmlns="http://www.w3.org/2000/svg">
<path d="M32.5012 6.53295V1.06086C32.5012 0.693019 32.3104 0.352737 31.9977 0.158744C31.6839 -0.0352493 31.2949 -0.0522104 30.9663 0.112101L26.726 2.23224C26.3666 2.41245 26.1408 2.77924 26.1408 3.18101V6.66334C14.3846 8.50892 5.61149 19.0291 6.01326 31.028C6.35884 41.4199 13.6023 50.2969 23.2755 53.1135L22.7857 53.1951C22.208 53.2916 21.8179 53.8375 21.9143 54.4153C22.0002 54.9337 22.4497 55.3004 22.9585 55.3004C23.0168 55.3004 23.074 55.2962 23.1334 55.2856L27.2921 54.5923L25.1783 56.7061C24.7638 57.1206 24.7638 57.7905 25.1783 58.205C25.385 58.4117 25.6564 58.5156 25.9278 58.5156C26.1991 58.5156 26.4705 58.4117 26.6772 58.205L29.32 55.5623V58.9407C29.32 59.5259 29.7938 60.0008 30.38 60.0008C30.9663 60.0008 31.4401 59.5259 31.4401 58.9407V55.5633L34.0829 58.2061C34.2906 58.4139 34.562 58.5167 34.8334 58.5167C35.1048 58.5167 35.3762 58.4128 35.5829 58.2061C35.9974 57.7916 35.9974 57.1216 35.5829 56.7072L33.6058 54.7301L37.5928 55.5273C37.6627 55.5411 37.7338 55.5485 37.8016 55.5485C38.2967 55.5485 38.7398 55.1997 38.8394 54.6962C38.9539 54.1216 38.5818 53.564 38.0083 53.4485L36.4691 53.1411C40.0553 52.1118 43.368 50.2386 46.1783 47.599C50.9603 43.1075 53.7027 36.7704 53.7027 30.2128C53.7027 18.0782 44.4673 7.86228 32.5012 6.53295ZM44.727 46.0545C42.5751 48.0761 40.0967 49.5973 37.4221 50.5905C41.1133 47.7411 44.2172 43.7669 46.0203 39.3443C48.6875 32.8068 48.3843 25.8135 45.1691 19.6524C44.8988 19.1329 44.2606 18.9305 43.738 19.2029C43.2196 19.4743 43.0182 20.1146 43.2885 20.6329C47.0338 27.8107 45.7733 34.3344 44.0571 38.5439C42.0769 43.4001 38.4143 47.6648 34.1709 50.2757C38.9762 43.0534 41.7525 28.769 38.479 17.722C38.3136 17.1612 37.7232 16.8411 37.1613 17.0064C36.6005 17.1729 36.2804 17.7623 36.4458 18.3241C39.9578 30.1778 36.1426 44.757 31.4401 50.4146V13.7817C31.4401 13.1966 30.9663 12.7216 30.38 12.7216C29.7938 12.7216 29.32 13.1966 29.32 13.7817V50.4135C24.6186 44.757 20.8023 30.1768 24.3143 18.3231C24.4797 17.7612 24.1596 17.1718 23.5988 17.0054C23.0369 16.8411 22.4465 17.1602 22.2811 17.7209C19.0076 28.7679 21.7839 43.0534 26.5892 50.2746C22.3468 47.6637 18.6843 43.399 16.703 38.5428C14.9868 34.3333 13.7253 27.8096 17.4716 20.6319C17.7419 20.1135 17.5405 19.4732 17.0221 19.2019C16.4995 18.9305 15.8624 19.133 15.591 19.6513C12.3758 25.8125 12.0737 32.8057 14.7398 39.3432C16.6638 44.0616 20.0666 48.2732 24.0853 51.1492C15.1596 48.6602 8.45036 40.5072 8.13128 30.958C7.75708 19.7351 16.1857 9.9326 27.3228 8.64143C27.8571 8.57995 28.261 8.12624 28.261 7.58878V3.83613L30.3811 2.77606V7.50185C30.3811 8.05839 30.8115 8.52058 31.368 8.55981C42.7034 9.34426 51.5825 18.8552 51.5825 30.2128C51.5825 36.2754 49.1475 41.9011 44.727 46.0545Z" fill="black"/>
</svg>
