<svg width="120" height="120" viewBox="0 0 120 120" fill="none" xmlns="http://www.w3.org/2000/svg">
<g clip-path="url(#clip0_112:79)">
<g style="mix-blend-mode:multiply" opacity="0.15">
<g style="mix-blend-mode:multiply" opacity="0.15">
<path d="M82.0434 44.6244V87.8571H39.1963L82.0434 44.6244Z" fill="#065A92"/>
</g>
</g>
<g clip-path="url(#clip1_112:79)">
<path d="M90 60.0007C90 62.9008 87.6498 65.251 84.7482 65.251H65.2504V84.7497C65.2504 87.6505 62.8993 90.0008 59.9997 90C58.5496 90 57.2371 89.4132 56.2878 88.4634C55.3374 87.5123 54.7498 86.2005 54.7505 84.7512L54.7497 65.2502H35.2495C33.8003 65.2502 32.4888 64.6634 31.5376 63.7122C30.5888 62.7633 30.0016 61.4508 30.0016 60.0007C30.0008 57.1012 32.351 54.7504 35.2522 54.7504H54.7505V35.2514C54.7505 32.351 57.102 30 60.0019 30C62.9008 30.0008 65.2502 32.3494 65.2518 35.2495V54.7504H84.752C87.6514 54.752 89.9986 57.1012 90 60.0007Z" fill="#065A92"/>
</g>
</g>
<defs>
<clipPath id="clip0_112:79">
<rect width="120" height="120" fill="white"/>
</clipPath>
<clipPath id="clip1_112:79">
<rect width="60" height="60" fill="white" transform="translate(30 30)"/>
</clipPath>
</defs>
</svg>
