<svg width="120" height="120" viewBox="0 0 120 120" fill="none" xmlns="http://www.w3.org/2000/svg">
<g clip-path="url(#clip0_115:138)">
<path d="M43.0003 30C35.8323 30 30.0002 35.8319 30.0002 42.9999C30.0002 50.1679 35.8322 55.9998 43.0002 55.9998C50.1681 55.9998 56.0002 50.1679 56.0002 42.9999C56.0002 35.8319 50.1683 30 43.0003 30Z" fill="#065A92"/>
<path d="M84.9061 47.5759C84.7411 47.2249 84.3881 46.9999 84.0001 46.9999H80.0002V41C80.0002 40.735 79.8952 40.48 79.7072 40.293L75.7071 36.2929C75.5201 36.1049 75.2661 35.9999 75.0001 35.9999H60.0002C59.4472 35.9999 59.0002 36.4479 59.0002 36.9999C59.0002 37.5518 59.4472 37.9999 60.0002 37.9999H74.5861L78.0001 41.4139V46.9998H74.0002C73.6122 46.9998 73.2592 47.2248 73.0951 47.5758C72.9301 47.9278 72.9842 48.3428 73.2321 48.6397L78.2322 54.6397C78.4221 54.8678 78.7031 54.9997 79.0002 54.9997C79.2973 54.9997 79.5782 54.8678 79.7692 54.6397L84.7692 48.6397C85.017 48.3418 85.0711 47.9269 84.9061 47.5759Z" fill="#065A92"/>
<path d="M66.0001 82.9998C65.8331 82.9998 66.0271 83.0517 66.0001 82.9998V82.9998Z" fill="#065A92"/>
<path d="M79 69.9998C79 68.0518 78.5801 66.1788 77.7511 64.4308C77.69 64.3038 77.5751 64.0289 77.534 64.0269C75.3661 59.8578 71.0141 56.9999 66.0001 56.9999C58.8322 56.9999 53.0002 62.8318 53.0002 69.9998C53.0002 76.9858 59.0842 82.7127 66.0001 82.9997C73.168 82.9998 79 77.1678 79 69.9998Z" fill="#065A92"/>
<path d="M80.838 64.6029C80.437 64.4789 80.0761 64.8529 80.21 65.2509C80.727 66.7739 81 68.3619 81 69.9999C81 77.6909 75.1769 84.0309 67.71 84.8829C67.2911 84.931 67.105 85.4179 67.388 85.73C70.4279 89.0719 75.1149 90.7439 79.8499 89.6829C85.5338 88.4099 89.7688 83.3229 89.9898 77.5019C90.22 71.4539 86.288 66.2879 80.838 64.6029Z" fill="#065A92"/>
</g>
<defs>
<clipPath id="clip0_115:138">
<rect width="60" height="60" fill="white" transform="translate(30 30)"/>
</clipPath>
</defs>
</svg>
