<svg width="120" height="120" viewBox="0 0 120 120" fill="none" xmlns="http://www.w3.org/2000/svg">
<path d="M73.5261 76.7126C83.3854 73.4378 89.6901 72.0316 92.4401 72.4941C94.9222 72.8167 97.1992 74.0516 98.8353 75.9625C80.1185 87.1527 68.8522 92.7479 65.0363 92.7479C59.3286 92.7479 49.5438 90.199 40.2547 86.8193C33.9542 84.4892 28.02 81.2536 22.6357 77.2127V63.1133C48.4673 67.9852 62.5902 70.7653 65.0044 71.4536C68.6657 72.4941 73.4941 72.4941 73.4941 75.9625C73.4941 77.374 73.0864 79.1889 68.6976 79.1889H51.8461" fill="white"/>
<path d="M73.5261 76.7126C83.3854 73.4378 89.6901 72.0316 92.4401 72.4941C94.9222 72.8167 97.1992 74.0516 98.8353 75.9625C80.1185 87.1527 68.8522 92.7479 65.0363 92.7479C59.3286 92.7479 49.5438 90.199 40.2547 86.8193C33.9542 84.4892 28.02 81.2536 22.6357 77.2127V63.1133C48.4673 67.9852 62.5902 70.7653 65.0044 71.4536C68.6657 72.4941 73.4941 72.4941 73.4941 75.9625C73.4941 77.374 73.0864 79.1889 68.6976 79.1889H51.8461" stroke="#065A92" stroke-width="3" stroke-linecap="round" stroke-linejoin="round"/>
<path d="M34.3695 61H21.1553V87.0694H34.3695V61Z" fill="white" stroke="#065A92" stroke-width="3" stroke-linecap="round" stroke-linejoin="round"/>
<path fill-rule="evenodd" clip-rule="evenodd" d="M25.0811 83.109L30.4451 64.9604V83.109H25.0811Z" fill="#065A92" fill-opacity="0.15"/>
<path d="M86 32H43.4131V57.0521H86V32Z" fill="white" stroke="#065A92" stroke-width="2" stroke-linecap="round" stroke-linejoin="round"/>
<path opacity="0.4" d="M82.8422 34.9052V54.1412H67.6963C69.0091 53.6044 70.1685 52.7457 71.0696 51.6429H77.0155C77.0155 50.7463 77.3686 49.8864 77.9969 49.2523C78.6253 48.6183 79.4775 48.2621 80.3662 48.2621V40.813C79.4775 40.813 78.6253 40.4568 77.9969 39.8228C77.3686 39.1887 77.0155 38.3288 77.0155 37.4322H71.0696C70.1685 36.3294 69.0091 35.4707 67.6963 34.9339L82.8422 34.9052Z" fill="#065A92"/>
<path d="M67.4925 46.8353C67.9517 46.8584 68.4052 46.9491 68.8384 47.1046C69.1992 47.2479 69.8227 47.652 70 48C69.6089 49.211 67.8 51.5 65 51.5C62.2 51.5 60.3877 49.211 60 48C60.1728 47.6528 60.8027 47.2484 61.1604 47.1046C61.5917 46.9492 62.0432 46.8585 62.5006 46.8353C62.8963 46.7997 63.2816 46.6889 63.6364 46.5087H66.3567C66.712 46.6875 67.0971 46.7983 67.4925 46.8353Z" fill="#065A92"/>
<path opacity="0.4" d="M58.9176 51.6429H52.4209C52.4209 50.7463 52.0678 49.8864 51.4395 49.2523C50.8111 48.6183 49.959 48.2621 49.0703 48.2621V40.813C49.5127 40.813 49.8856 40.7517 50.3591 40.5529C50.8336 40.3537 51.1381 40.1296 51.4496 39.8127C51.7611 39.4957 52.0073 39.1196 52.174 38.7061C52.3407 38.2926 52.4246 37.8499 52.4209 37.4035H58.9176C59.8167 36.2986 60.9768 35.4395 62.291 34.9052H46.5771V54.1412H62.291C60.9768 53.607 59.8167 52.7479 58.9176 51.6429Z" fill="#065A92"/>
<path d="M71.25 44.5C71.25 48.923 68.3221 52.25 65 52.25C61.6779 52.25 58.75 48.923 58.75 44.5C58.75 40.077 61.6779 36.75 65 36.75C68.3221 36.75 71.25 40.077 71.25 44.5Z" stroke="#065A92" stroke-width="1.5"/>
<path d="M65 47C66.6569 47 68 45.433 68 43.5C68 41.567 66.6569 40 65 40C63.3431 40 62 41.567 62 43.5C62 45.433 63.3431 47 65 47Z" fill="#065A92"/>
</svg>
