<svg width="120" height="120" viewBox="0 0 120 120" fill="none" xmlns="http://www.w3.org/2000/svg">
<path d="M55 42.5H37.5C36.1193 42.5 35 43.6193 35 45V77.5C35 78.8807 36.1193 80 37.5 80H82.5C83.8807 80 85 78.8807 85 77.5V66.875" stroke="#065A92" stroke-width="4" stroke-linecap="round" stroke-linejoin="round"/>
<path d="M42.5 58.75H55" stroke="#065A92" stroke-width="4" stroke-linecap="round"/>
<path d="M42.5 68.75H77.5" stroke="#065A92" stroke-width="4" stroke-linecap="round"/>
<path d="M72.5 57.5C76.6421 57.5 80 54.1421 80 50C80 45.8579 76.6421 42.5 72.5 42.5C68.3579 42.5 65 45.8579 65 50C65 54.1421 68.3579 57.5 72.5 57.5Z" fill="#2F88FF" stroke="#065A92" stroke-width="4" stroke-linecap="round" stroke-linejoin="round"/>
<path d="M85.0001 65.5234C82.5586 60.7529 77.6912 57.5 72.0852 57.5C65.2891 57.5 59.5787 62.2804 57.9596 68.75" stroke="#065A92" stroke-width="4" stroke-linecap="round" stroke-linejoin="round"/>
</svg>
