<svg width="120" height="120" viewBox="0 0 120 120" fill="none" xmlns="http://www.w3.org/2000/svg">
<path d="M84.22 54H79.168C78.356 54 77.687 53.553 77.376 52.803C77.065 52.053 77.223 51.263 77.796 50.689L81.368 47.118C81.893 46.593 82.182 45.894 82.182 45.152C82.182 44.409 81.893 43.711 81.368 43.185L76.815 38.632C75.765 37.582 73.934 37.58 72.882 38.632L69.311 42.203C68.737 42.776 67.945 42.936 67.197 42.624C66.447 42.313 66 41.644 66 40.832V35.78C66 34.247 64.753 33 63.22 33H56.78C55.247 33 54 34.247 54 35.78V40.832C54 41.644 53.553 42.313 52.803 42.624C52.055 42.937 51.263 42.776 50.689 42.203L47.118 38.632C46.066 37.58 44.235 37.582 43.185 38.632L38.632 43.185C38.107 43.71 37.818 44.409 37.818 45.152C37.818 45.894 38.107 46.592 38.632 47.118L42.204 50.689C42.777 51.263 42.934 52.053 42.624 52.803C42.314 53.553 41.644 54 40.832 54H35.78C34.247 54 33 55.247 33 56.78V63.219C33 64.753 34.247 66 35.78 66H40.832C41.644 66 42.313 66.447 42.624 67.197C42.935 67.947 42.777 68.737 42.204 69.311L38.632 72.882C38.107 73.407 37.818 74.106 37.818 74.848C37.818 75.591 38.107 76.289 38.632 76.815L43.185 81.368C44.236 82.419 46.066 82.421 47.118 81.368L50.689 77.796C51.263 77.223 52.052 77.065 52.803 77.376C53.553 77.687 54 78.356 54 79.168V84.22C54 85.753 55.247 87 56.78 87H63.219C64.752 87 65.999 85.753 65.999 84.22V79.168C65.999 78.356 66.446 77.687 67.196 77.376C67.947 77.064 68.736 77.223 69.31 77.796L72.881 81.368C73.933 82.42 75.764 82.418 76.814 81.368L81.367 76.815C81.892 76.29 82.181 75.591 82.181 74.848C82.181 74.106 81.892 73.408 81.367 72.882L77.795 69.311C77.222 68.737 77.065 67.947 77.375 67.197C77.685 66.447 78.356 66 79.168 66H84.22C85.753 66 87 64.753 87 63.22V56.78C87 55.247 85.753 54 84.22 54ZM85 63.22C85 63.65 84.65 64 84.22 64H79.168C77.544 64 76.149 64.932 75.528 66.432C74.906 67.932 75.233 69.578 76.382 70.726L79.954 74.297C80.259 74.602 80.259 75.097 79.954 75.401L75.401 79.954C75.097 80.258 74.602 80.26 74.297 79.954L70.726 76.382C69.577 75.233 67.932 74.908 66.432 75.528C64.932 76.149 64 77.544 64 79.168V84.22C64 84.65 63.65 85 63.22 85H56.78C56.35 85 56 84.65 56 84.22V79.168C56 77.544 55.068 76.149 53.568 75.528C53.065 75.319 52.547 75.217 52.035 75.217C51.021 75.217 50.038 75.617 49.274 76.381L45.703 79.953C45.397 80.259 44.902 80.257 44.599 79.953L40.046 75.4C39.741 75.095 39.741 74.6 40.046 74.296L43.618 70.725C44.766 69.577 45.094 67.931 44.472 66.431C43.851 64.932 42.456 64 40.832 64H35.78C35.35 64 35 63.65 35 63.22V56.78C35 56.35 35.35 56 35.78 56H40.832C42.456 56 43.851 55.068 44.472 53.568C45.094 52.068 44.767 50.422 43.618 49.274L40.046 45.703C39.741 45.398 39.741 44.903 40.046 44.599L44.599 40.046C44.903 39.741 45.398 39.741 45.703 40.046L49.274 43.617C50.421 44.764 52.066 45.093 53.568 44.471C55.068 43.851 56 42.456 56 40.832V35.78C56 35.35 56.35 35 56.78 35H63.219C63.65 35 64 35.35 64 35.78V40.832C64 42.456 64.932 43.851 66.432 44.472C67.934 45.094 69.578 44.766 70.726 43.618L74.297 40.047C74.603 39.742 75.098 39.742 75.401 40.047L79.954 44.6C80.259 44.905 80.259 45.4 79.954 45.704L76.382 49.275C75.234 50.423 74.906 52.069 75.528 53.569C76.149 55.069 77.544 56.001 79.168 56.001H84.22C84.65 56 85 56.35 85 56.78V63.22Z" fill="#065A92"/>
<path d="M60 51C55.037 51 51 55.037 51 60C51 64.963 55.037 69 60 69C64.963 69 69 64.963 69 60C69 55.037 64.963 51 60 51ZM60 67C56.141 67 53 63.859 53 60C53 56.141 56.141 53 60 53C63.859 53 67 56.141 67 60C67 63.859 63.859 67 60 67Z" fill="#065A92"/>
</svg>
