<svg width="120" height="120" viewBox="0 0 120 120" fill="none" xmlns="http://www.w3.org/2000/svg">
<path d="M87.0985 63.5292L87.0109 63.4209C86.5927 62.8808 85.6778 62.1132 84.3435 61.581L84.139 61.516C82.7491 60.8464 81.4899 60.3973 81.1206 60.2708C80.8306 60.1712 80.5879 60.0628 80.3941 59.9747C78.861 59.1845 78.6876 58.7229 78.6628 58.6514L78.5932 58.4815L78.6521 58.3285C79.7914 56.8462 80.5918 55.1194 80.8967 53.4919L80.9416 53.3813C81.2561 52.9622 81.4573 52.4724 81.5374 51.9327C81.9 50.5635 81.915 49.5575 81.5897 48.8523L81.5607 48.7899L81.5757 48.7205C81.9802 46.9512 82.3697 43.6369 80.4255 41.3244C80.1152 40.9175 78.9232 39.5427 76.611 38.8353L75.4833 38.4317C73.6354 37.8371 72.467 37.694 72.2724 37.6906C72.1492 37.6906 72.0392 37.7062 71.8786 37.7431L71.7396 37.7721C71.6583 37.7587 71.5737 37.7509 71.4786 37.7509C70.86 37.7509 70.1915 38.0348 70.1915 38.0348C69.5398 38.3209 66.2296 39.9159 65.1799 43.3049C65.0056 43.7865 64.6502 45.2509 65.1103 48.4544L65.1219 48.5338L65.0738 48.6009C64.602 49.2649 64.5623 50.3412 64.9551 51.7875C65.0579 52.4281 65.258 52.94 65.5521 53.3254L65.6015 53.4338C65.8915 55.1116 66.6051 56.7647 67.6656 58.2176L67.7502 58.335L67.6709 58.4524C67.6249 58.524 67.5929 58.5977 67.5809 58.6514C67.4183 59.1364 66.174 59.9044 64.2448 60.7115C63.8136 60.5481 63.5141 60.4454 63.4079 60.4085C63.0175 60.272 62.691 60.1259 62.4267 60.005C60.3863 58.9531 60.1178 58.3397 60.0771 58.1988L59.9701 57.9496L60.0643 57.7182C61.5953 55.7253 62.6698 53.4047 63.0827 51.2085L63.1457 51.0576C63.5694 50.4954 63.8403 49.838 63.9419 49.1215C64.4286 47.2895 64.4543 45.9415 64.0157 45.0014L63.9676 44.9018L63.9933 44.7943C64.538 42.4179 65.06 37.9717 62.4503 34.8744C62.0363 34.3322 60.4464 32.4879 57.3392 31.5379L55.821 30.9935C53.2867 30.1799 51.7138 30.0022 51.5096 30C51.3428 30 51.1984 30.0191 50.9876 30.0715L50.7843 30.1062C49.9433 29.9641 48.9098 30.381 48.7226 30.4572C47.8472 30.8408 43.4102 32.9845 42.0033 37.5291C41.7689 38.1728 41.2938 40.1358 41.9112 44.4358L41.9294 44.5654L41.8523 44.6728C41.2233 45.5514 41.1751 46.9878 41.7025 48.927C41.8374 49.7809 42.1049 50.4627 42.5017 50.9849L42.5713 51.1379C42.9555 53.3891 43.914 55.6122 45.3416 57.5695L45.4752 57.7516L45.3478 57.944C45.2857 58.0389 45.2441 58.1364 45.2345 58.1976C44.8803 59.2517 40.9312 61.0947 37.4709 62.1981C34.9799 63.1841 33.8866 64.7813 33.88 64.7913C30.4493 70.1117 30.0149 81.5339 30 82.0246C30.0535 84.9957 31.3451 85.5991 31.5932 85.6862L31.8115 85.7859C39.4008 89.2454 50.4856 89.9194 51.7257 89.9853L52.1132 89.9975C52.4833 89.9975 52.8588 89.9763 53.211 89.9563L53.2421 89.955L53.3566 89.9641C53.4487 89.9875 53.5234 90 53.6006 90H53.6018L53.6541 89.9978C54.1558 89.971 66.0571 89.2645 73.4838 85.7827C73.8892 85.6709 75.199 85.0831 75.3168 82.1948C77.965 81.9555 84.3002 81.1932 88.6026 79.1781C88.9213 79.0909 89.9647 78.6281 90 76.2819C89.9513 75.3796 89.5372 67.3183 87.0985 63.5292ZM46.4744 59.3857L46.6809 59.1845L46.8863 59.3857C48.7032 61.174 50.7158 62.1566 52.5476 62.1566C54.4724 62.1566 56.4593 61.2846 58.2932 59.6327L58.4484 59.4962L58.8505 59.702C59.1928 60.0272 59.806 60.4944 60.081 60.6353L60.4598 60.8286L60.4192 60.8689L60.5648 60.9604C60.9116 61.174 61.2805 61.383 61.702 61.6019C62.129 61.7996 62.4949 61.9483 62.8833 62.0826C62.9592 62.1094 64.7718 62.7209 66.8377 63.7201L67.2069 63.8397C69.1703 64.6211 70.0005 65.722 70.0307 65.7598C73.0781 70.4856 73.5905 80.8003 73.6407 81.9537C73.6171 83.5656 73.1773 83.9834 73.0628 84.064C66.2332 87.2575 55.9155 88.088 53.919 88.221L53.8634 88.2245L53.8066 88.2067C53.7393 88.1854 53.6705 88.1754 53.585 88.1754H53.5829L53.5124 88.1789C52.9668 88.2179 52.5153 88.2369 52.0935 88.2369H51.7628C50.5194 88.1586 39.3939 87.3974 32.2734 84.0878C32.1299 84.0253 31.7095 83.5178 31.6784 82.0355C31.6796 81.9249 32.0455 70.791 35.2436 65.8282C35.4 65.6224 36.2697 64.5639 38.0073 63.8709C39.5341 63.3803 43.3143 62.0713 45.3813 60.5075C45.468 60.4529 45.5535 60.361 45.6456 60.2627C45.7969 60.0921 46.1114 59.7389 46.4744 59.3857ZM67.7517 62.1722L67.4691 62.086C67.0048 61.8624 66.5178 61.6412 66.0141 61.4254C66.7256 61.0778 67.3077 60.7368 67.74 60.4073C67.8097 60.3648 67.879 60.2911 67.9445 60.2196C68.1009 60.044 68.3116 59.8082 68.5577 59.5681L68.6892 59.4419L68.8154 59.5706C70.1754 60.9051 71.6774 61.6372 73.044 61.6372C74.4841 61.6372 75.9682 60.9866 77.3345 59.7548L77.432 59.6686L77.7079 59.8082C77.9593 60.0531 78.4174 60.3973 78.6216 60.5035L78.8601 60.6218L78.8311 60.6521L78.9809 60.7436C79.241 60.9057 79.5191 61.06 79.8306 61.2209C80.1505 61.3683 80.4222 61.4801 80.7102 61.5807C80.7658 61.5997 82.1021 62.0479 83.6472 62.7956L83.919 62.8827C85.3259 63.4449 85.9379 64.2163 85.9968 64.2966C88.2705 67.8174 88.6376 75.4496 88.6708 76.3C88.6546 77.4803 88.3413 77.7823 88.263 77.8357C83.9854 79.8355 77.8436 80.5866 75.2608 80.8234C75.0286 77.3204 74.2004 69.0701 71.4379 64.7791L71.3213 64.6327C70.7614 63.9115 69.5353 62.8855 67.7517 62.1722ZM66.1519 49.4232L66.2 49.3639C66.4162 49.1984 66.522 48.9426 66.4813 48.6777C65.9677 45.4552 66.3017 44.1029 66.4162 43.7618C67.3119 40.8925 70.1291 39.5536 70.683 39.3165C70.7943 39.2719 71.0095 39.2047 71.2373 39.1644L71.3058 39.1476L71.7306 39.1241L71.7339 39.1544L71.8622 39.1423C71.9575 39.1345 72.0493 39.1188 72.1136 39.1042L72.2571 39.0707C72.348 39.0729 73.4608 39.2238 75.0734 39.7404L76.2107 40.1482C78.2756 40.7854 79.2323 41.9756 79.4087 42.2161C81.0683 44.1834 80.6231 47.1433 80.2091 48.7336C80.1621 48.9292 80.1908 49.1303 80.2979 49.2949L80.39 49.4189C80.5066 49.5822 80.6124 50.2315 80.253 51.631C80.1858 52.0558 80.0348 52.3969 79.8186 52.6236C79.731 52.7198 79.6721 52.845 79.6506 52.9881C79.0909 56.423 76.1464 60.2623 73.0446 60.2623C70.4104 60.2623 67.4069 56.7281 66.8667 52.9881C66.8443 52.846 66.7866 52.721 66.6912 52.608C66.4709 52.37 66.3286 52.0224 66.2407 51.498C65.9809 50.5254 65.9519 49.7396 66.1519 49.4232ZM43.2291 45.7213L43.3008 45.6351C43.5792 45.4262 43.7137 45.0976 43.6626 44.7578C42.966 40.3897 43.4207 38.5723 43.5771 38.116C44.787 34.2363 48.6003 32.4224 49.3492 32.1004C49.5056 32.0379 49.7965 31.9461 50.1047 31.8936L50.1873 31.8736L50.8154 31.8377L50.8175 31.8789L50.9523 31.8655C51.0776 31.8533 51.2005 31.833 51.344 31.803L51.4875 31.7684C51.6041 31.7696 53.0765 31.9629 55.2966 32.6738L56.8235 33.2225C59.614 34.0842 60.9139 35.6974 61.1525 36.0203C63.3972 38.6816 62.798 42.6865 62.2417 44.8384C62.1765 45.0867 62.216 45.3446 62.352 45.5548L62.4761 45.7213C62.6806 46.0074 62.7574 46.9653 62.3006 48.7393C62.2085 49.3183 62.0022 49.7877 61.7002 50.0994C61.5899 50.2225 61.5185 50.3833 61.4874 50.5654C60.7277 55.2096 56.743 60.4026 52.5467 60.4026C48.9806 60.4026 44.9146 55.6231 44.1807 50.5685C44.1562 50.3864 44.0844 50.2222 43.9582 50.0788C43.6521 49.749 43.4587 49.274 43.3397 48.5675C42.9863 47.237 42.9498 46.1673 43.2291 45.7213Z" fill="#065A92"/>
</svg>
